<?xml version="1.0" encoding="UTF-8"?>
<svg id="Capa_1" xmlns="http://www.w3.org/2000/svg" version="1.1" viewBox="0 0 1327.49 310.98">
  <!-- Generator: Adobe Illustrator 29.3.1, SVG Export Plug-In . SVG Version: 2.1.0 Build 151)  -->
  <defs>
    <style>
      .st0 {
        fill: #ea65c7;
      }

      .st1 {
        fill: #7d3da0;
      }
    </style>
  </defs>
  <g>
    <path class="st1" d="M411.81,55.59c0,13.67-10.5,23.29-29.39,23.29h-.41c-9.68-.06-17.07-9.09-14.72-18.48.76-2.99,1.17-6.51,1.17-10.62,0-9.62-2.29-13.96-8.09-13.96-14.25,0-14.25,24.7-14.25,54.96v1.7h17.77v6.69h-17.77v101.07c0,13.08,6.22,19.06,15.08,22.64v2.64h-72.27v-2.64c8.86-3.58,15.08-9.56,15.08-22.64v-101.07h-.06v-19.18c0-38.66,24.7-51.44,54.38-51.44,36.6,0,53.5,10.21,53.5,27.04Z"/>
    <path class="st1" d="M333.02,240.82c-8.43,0-19.29,4.66-19.29,14.41,0,5.32,2.88,10.2,2.88,15.52,0,11.31-9.09,17.74-19.73,17.74-23.5,0-21.29-28.38-21.29-44.57v-115.96c0-25.28-17.74-37.69-41.46-37.69-14.85,0-34.59,8.43-44.12,21.29-5.99-14.19-20.62-21.29-38.36-21.29-13.97,0-32.59,7.54-42.57,19.29v-.08c-.18-2.86-1.11-6.55-5.78-12.49-1.03-1.31-2.14-2.44-3.29-3.45-8.4-7.31-19.24-7.07-20.65-7.01h-27.1v2.84c5.77,2.61,9.36,8.28,11.56,18.06,1.69,7.54,2.56,16.16,2.92,24.36.13,3.02.2,5.97.22,8.79v59.66c0,11.31-4.66,18.4-15.08,22.62v2.66h72.28v-2.66c-10.42-4.21-15.08-11.31-15.08-22.62v-76.94c5.1-8.42,13.3-14.63,23.95-14.63,14.41,0,17.96,14.63,17.96,26.38v65.19c0,11.31-4.66,18.4-15.08,22.62v2.66h72.28v-2.66c-10.42-4.21-15.08-11.31-15.08-22.62v-72.28c0-2.22-.22-4.43-.44-6.43,5.32-7.54,13.08-12.86,22.84-12.86,14.41,0,17.96,14.63,17.96,26.38v81.37c0,47.67,5.32,78.71,61.64,78.71,21.29,0,57.64-8.87,57.64-35.7,0-11.09-8.87-18.62-19.73-18.62Z"/>
    <path class="st1" d="M421.99,45.08v-4.32c10.57-1.29,45.09-15.75,51.78-23.51l4.31,1.72v88.45c6.69-10.79,20.5-14.89,32.36-14.89,40.56,0,60.41,28.48,60.41,66.44s-22.01,66.88-62.99,66.88c-14.67,0-28.7-3.67-39.48-13.38l-28.48,11.65h-2.8V63.42c0-9.49-6.26-15.75-15.1-18.34ZM478.07,119.94v77.23c1.3,8.84,7.98,20.71,22.01,20.06,24.38-1.08,27.61-38.4,27.61-58.03,0-17.91-1.73-56.09-26.97-56.09-8.84,0-18.12,5.82-22.65,16.83Z"/>
    <path class="st1" d="M652.8,92.54c37.96,0,57.38,26.1,57.38,57.81l-85.42,7.12c2.37,25.24,15.75,44.87,42.93,44.01,18.98-.65,36.24-9.28,49.19-28.48l2.8,1.29c-12.51,31.5-36.24,51.56-69.03,51.56-41.85,0-66.87-25.02-66.87-66.88s28.04-66.44,69.03-66.44ZM670.71,144.75c3.24-22.01-3.02-45.95-18.56-45.95-21.79,0-28.26,30.2-27.83,51.56l46.38-5.61Z"/>
    <path class="st1" d="M775.32,150.36c16.61-2.59,29.55-9.49,29.55-28.47,0-10.79-4.74-22.87-17.25-22.87-10.57,0-18.34,5.61-18.34,16.83,0,5.4,2.8,9.92,2.8,15.1,0,9.49-10.57,14.02-18.77,14.02-10.35,0-19.2-7.12-19.2-18.12,0-26.32,37.32-34.3,57.82-34.3,27.83,0,53.93,9.92,53.93,42.07v53.93c0,6.26,2.59,14.67,10.14,14.67,4.32,0,7.98-3.02,10.36-6.47l3.24,1.72c-5.4,17.47-20.28,25.67-37.97,25.67-10.35,0-21.35-3.02-25.67-13.59-12.08,6.47-25.23,15.53-39.47,15.53-21.36,0-38.62-9.71-38.62-33.22,0-27.4,23.95-38.62,47.46-42.5ZM804.88,202.56v-55.23c-18.77,5.4-33.87,17.26-33.87,38.4,0,12.08,6.26,22.44,19.42,22.44,5.39,0,10.14-2.59,14.45-5.61Z"/>
    <path class="st1" d="M921.78,92.54l4.32,1.73v88.01c0,17.26,7.12,25.67,17.47,25.67,12.51,0,21.57-8.63,26.1-19.85v-51.34c0-9.06-3.02-19.41-12.72-21.57v-4.32c11.22-.22,42.71-11.87,49.4-18.34l4.32,1.73-.22,94.27c0,9.71,4.96,14.67,10.36,14.67,3.67,0,7.55-2.16,10.35-6.47l3.24,1.72c-4.1,12.95-15.31,25.67-37.96,25.67-10.57,0-26.32-3.88-26.76-20.93-6.25,9.28-23.51,22.65-44.22,22.65s-40.34-10.57-40.34-36.68v-52.42c0-9.06-3.02-19.41-12.73-21.57v-4.32c11.22-.22,42.71-11.87,49.4-18.34Z"/>
    <path class="st1" d="M1047.33,101.17h-15.97v-6.9c12.3-3.02,47.03-27.61,52.63-40.56h4.32v40.56h21.57v6.9h-21.57l-.22,87.37c0,9.71,4.96,14.67,10.36,14.67,3.67,0,7.55-2.16,10.35-6.47l3.24,1.72c-4.09,12.95-15.31,25.67-37.96,25.67-10.79,0-26.75-4.53-26.75-23.73v-99.23Z"/>
    <path class="st1" d="M1177.61,191.78l-42.71-80.03c-2.81-5.4-12.52-14.67-18.99-14.89v-2.59h75.29v2.59c-4.96,2.16-8.63,6.69-8.63,12.08,0,2.81.86,5.18,1.94,7.55l34.95,69.9,27.61-62.34c1.52-3.45,2.59-7.34,2.59-11.22,0-9.28-6.04-15.96-15.75-15.96v-2.59h51.99v2.59c-14.03,2.8-24.81,14.24-30.64,26.75l-46.81,100.53c-10.78,23.08-25.02,60.62-56.3,60.62-14.67,0-26.75-9.06-26.75-24.59,0-9.71,5.83-19.2,16.4-19.2,1.29,0,2.58.22,3.88.65,1.73,8.84,15.1,11.65,22.44,11.65,12.08,0,26.32-6.69,26.32-20.49,0-11.87-11.22-30.42-16.83-40.99Z"/>
  </g>
  <path class="st0" d="M413.33,126.14c-10.86-10.9-16.84-25.38-16.84-40.79h-3.31c0,15.41-5.98,29.9-16.84,40.79-10.86,10.9-25.28,16.9-40.59,16.9v3.33c31.67,0,57.43,25.88,57.43,57.69h3.31c0-15.41,5.98-29.9,16.84-40.79,10.86-10.9,25.29-16.9,40.64-16.9v-3.33c-15.35,0-29.78-6-40.64-16.9Z"/>
</svg>